<svg id="visual" viewBox="0 0 540 960" width="540" height="960" xmlns="http://www.w3.org/2000/svg" xmlns:xlink="http://www.w3.org/1999/xlink" version="1.1"><rect x="0" y="0" width="540" height="960" fill="#ffffff"></rect><defs><linearGradient id="grad1_0" x1="0%" y1="100%" x2="100%" y2="0%"><stop offset="30%" stop-color="#ffffff" stop-opacity="1"></stop><stop offset="70%" stop-color="#ffffff" stop-opacity="1"></stop></linearGradient></defs><defs><linearGradient id="grad2_0" x1="0%" y1="100%" x2="100%" y2="0%"><stop offset="30%" stop-color="#ffffff" stop-opacity="1"></stop><stop offset="70%" stop-color="#ffffff" stop-opacity="1"></stop></linearGradient></defs><g transform="translate(540, 960)"><path d="M-324 0C-266.3 -27.9 -208.6 -55.8 -188.8 -109C-169 -162.2 -187.1 -240.6 -162 -280.6C-136.9 -320.6 -68.4 -322.3 0 -324L0 0Z" fill="#005bea"></path></g><g transform="translate(0, 0)"><path d="M324 0C267.2 28.5 210.4 56.9 190.5 110C170.6 163.1 187.6 240.8 162 280.6C136.4 320.4 68.2 322.2 0 324L0 0Z" fill="#005bea"></path></g></svg>