<svg id="visual" viewBox="0 0 540 960" width="540" height="960" xmlns="http://www.w3.org/2000/svg" xmlns:xlink="http://www.w3.org/1999/xlink" version="1.1"><rect x="0" y="0" width="540" height="960" fill="#ffffff"></rect><defs><linearGradient id="grad1_0" x1="0%" y1="100%" x2="100%" y2="0%"><stop offset="30%" stop-color="#ffffff" stop-opacity="1"></stop><stop offset="70%" stop-color="#ffffff" stop-opacity="1"></stop></linearGradient></defs><defs><linearGradient id="grad2_0" x1="0%" y1="100%" x2="100%" y2="0%"><stop offset="30%" stop-color="#ffffff" stop-opacity="1"></stop><stop offset="70%" stop-color="#ffffff" stop-opacity="1"></stop></linearGradient></defs><g transform="translate(540, 960)"><path d="M-432 0C-401.4 -64 -370.8 -128 -338.6 -195.5C-306.4 -263 -272.7 -334.1 -216 -374.1C-159.3 -414.1 -79.7 -423.1 0 -432L0 0Z" fill="#005bea"></path></g><g transform="translate(0, 0)"><path d="M432 0C344.6 31.2 257.2 62.4 232.1 134C207 205.6 244.3 317.7 216 374.1C187.7 430.5 93.9 431.3 0 432L0 0Z" fill="#005bea"></path></g></svg>